<mxfile host="app.diagrams.net" agent="Mozilla/5.0 (Macintosh; Intel Mac OS X 10_15_7) AppleWebKit/537.36 (KHTML, like Gecko) Chrome/131.0.0.0 Safari/537.36" version="24.8.6">
  <diagram name="Page-1" id="FlvnqrSes55FTKU1jK9X">
    <mxGraphModel dx="954" dy="476" grid="1" gridSize="10" guides="1" tooltips="1" connect="1" arrows="1" fold="1" page="1" pageScale="1" pageWidth="827" pageHeight="1169" math="0" shadow="0">
      <root>
        <mxCell id="0" />
        <mxCell id="1" parent="0" />
        <mxCell id="YCOWaq2i7h73TdRueokA-9" style="edgeStyle=orthogonalEdgeStyle;rounded=0;orthogonalLoop=1;jettySize=auto;html=1;curved=0;dashed=1;endArrow=none;endFill=0;" edge="1" parent="1" source="YCOWaq2i7h73TdRueokA-1" target="YCOWaq2i7h73TdRueokA-2">
          <mxGeometry relative="1" as="geometry" />
        </mxCell>
        <mxCell id="YCOWaq2i7h73TdRueokA-1" value="&lt;b&gt;ESP32&lt;/b&gt;" style="outlineConnect=0;dashed=0;verticalLabelPosition=bottom;verticalAlign=top;align=center;html=1;shape=mxgraph.aws3.generic;fillColor=#5294CF;gradientColor=none;" vertex="1" parent="1">
          <mxGeometry x="160" y="159.25" width="79.5" height="79.5" as="geometry" />
        </mxCell>
        <mxCell id="YCOWaq2i7h73TdRueokA-10" style="edgeStyle=orthogonalEdgeStyle;rounded=0;orthogonalLoop=1;jettySize=auto;html=1;dashed=1;endArrow=none;endFill=0;" edge="1" parent="1" source="YCOWaq2i7h73TdRueokA-2" target="YCOWaq2i7h73TdRueokA-3">
          <mxGeometry relative="1" as="geometry" />
        </mxCell>
        <mxCell id="YCOWaq2i7h73TdRueokA-2" value="&lt;span style=&quot;font-size: 13px;&quot;&gt;&lt;b&gt;WiFi&lt;/b&gt;&lt;/span&gt;" style="html=1;strokeWidth=1;shadow=0;dashed=0;shape=mxgraph.ios7.misc.wifi;fillColor=#007AFF;strokeColor=none;buttonText=;strokeColor2=#222222;fontColor=#222222;fontSize=15;verticalLabelPosition=bottom;verticalAlign=top;align=center;sketch=0;" vertex="1" parent="1">
          <mxGeometry x="290" y="169" width="60" height="60" as="geometry" />
        </mxCell>
        <mxCell id="YCOWaq2i7h73TdRueokA-11" style="edgeStyle=orthogonalEdgeStyle;rounded=0;orthogonalLoop=1;jettySize=auto;html=1;dashed=1;" edge="1" parent="1" source="YCOWaq2i7h73TdRueokA-3" target="YCOWaq2i7h73TdRueokA-4">
          <mxGeometry relative="1" as="geometry" />
        </mxCell>
        <mxCell id="YCOWaq2i7h73TdRueokA-3" value="MQTT&#xa;protocol" style="sketch=0;outlineConnect=0;fontColor=#232F3E;gradientColor=none;strokeColor=#232F3E;fillColor=#ffffff;dashed=0;verticalLabelPosition=bottom;verticalAlign=top;align=center;html=1;fontSize=12;fontStyle=0;aspect=fixed;shape=mxgraph.aws4.resourceIcon;resIcon=mxgraph.aws4.mqtt_protocol;" vertex="1" parent="1">
          <mxGeometry x="380" y="169" width="60" height="60" as="geometry" />
        </mxCell>
        <mxCell id="YCOWaq2i7h73TdRueokA-30" style="edgeStyle=orthogonalEdgeStyle;rounded=1;orthogonalLoop=1;jettySize=auto;html=1;curved=0;" edge="1" parent="1" source="YCOWaq2i7h73TdRueokA-4" target="YCOWaq2i7h73TdRueokA-14">
          <mxGeometry relative="1" as="geometry">
            <Array as="points">
              <mxPoint x="559" y="120" />
            </Array>
          </mxGeometry>
        </mxCell>
        <mxCell id="YCOWaq2i7h73TdRueokA-31" style="edgeStyle=orthogonalEdgeStyle;rounded=1;orthogonalLoop=1;jettySize=auto;html=1;curved=0;endArrow=none;endFill=0;" edge="1" parent="1" source="YCOWaq2i7h73TdRueokA-4" target="YCOWaq2i7h73TdRueokA-29">
          <mxGeometry relative="1" as="geometry">
            <Array as="points">
              <mxPoint x="560" y="280" />
            </Array>
          </mxGeometry>
        </mxCell>
        <mxCell id="YCOWaq2i7h73TdRueokA-4" value="&lt;b&gt;AWS IoT Core&lt;/b&gt;" style="sketch=0;points=[[0,0,0],[0.25,0,0],[0.5,0,0],[0.75,0,0],[1,0,0],[0,1,0],[0.25,1,0],[0.5,1,0],[0.75,1,0],[1,1,0],[0,0.25,0],[0,0.5,0],[0,0.75,0],[1,0.25,0],[1,0.5,0],[1,0.75,0]];outlineConnect=0;fontColor=#232F3E;fillColor=#7AA116;strokeColor=#ffffff;dashed=0;verticalLabelPosition=bottom;verticalAlign=top;align=center;html=1;fontSize=12;fontStyle=0;aspect=fixed;shape=mxgraph.aws4.resourceIcon;resIcon=mxgraph.aws4.iot_core;" vertex="1" parent="1">
          <mxGeometry x="520" y="160" width="78" height="78" as="geometry" />
        </mxCell>
        <mxCell id="YCOWaq2i7h73TdRueokA-5" value="PIR" style="image;aspect=fixed;perimeter=ellipsePerimeter;html=1;align=center;shadow=0;dashed=0;fontColor=#000000;labelBackgroundColor=default;fontSize=12;spacingTop=3;image=img/lib/ibm/users/sensor.svg;fontStyle=1" vertex="1" parent="1">
          <mxGeometry x="50" y="169" width="60" height="60" as="geometry" />
        </mxCell>
        <mxCell id="YCOWaq2i7h73TdRueokA-7" value="AWS Cloud" style="points=[[0,0],[0.25,0],[0.5,0],[0.75,0],[1,0],[1,0.25],[1,0.5],[1,0.75],[1,1],[0.75,1],[0.5,1],[0.25,1],[0,1],[0,0.75],[0,0.5],[0,0.25]];outlineConnect=0;gradientColor=none;html=1;whiteSpace=wrap;fontSize=12;fontStyle=0;container=1;pointerEvents=0;collapsible=0;recursiveResize=0;shape=mxgraph.aws4.group;grIcon=mxgraph.aws4.group_aws_cloud_alt;strokeColor=default;fillColor=none;verticalAlign=top;align=left;spacingLeft=30;fontColor=#232F3E;dashed=0;shadow=0;" vertex="1" parent="1">
          <mxGeometry x="480" width="520" height="480" as="geometry" />
        </mxCell>
        <mxCell id="YCOWaq2i7h73TdRueokA-12" value="&lt;b&gt;DynamoDB&lt;/b&gt;" style="sketch=0;points=[[0,0,0],[0.25,0,0],[0.5,0,0],[0.75,0,0],[1,0,0],[0,1,0],[0.25,1,0],[0.5,1,0],[0.75,1,0],[1,1,0],[0,0.25,0],[0,0.5,0],[0,0.75,0],[1,0.25,0],[1,0.5,0],[1,0.75,0]];outlineConnect=0;fontColor=#232F3E;fillColor=#C925D1;strokeColor=#ffffff;dashed=0;verticalLabelPosition=bottom;verticalAlign=top;align=center;html=1;fontSize=12;fontStyle=0;aspect=fixed;shape=mxgraph.aws4.resourceIcon;resIcon=mxgraph.aws4.dynamodb;" vertex="1" parent="YCOWaq2i7h73TdRueokA-7">
          <mxGeometry x="290" y="250" width="60" height="60" as="geometry" />
        </mxCell>
        <mxCell id="YCOWaq2i7h73TdRueokA-40" style="edgeStyle=orthogonalEdgeStyle;rounded=0;orthogonalLoop=1;jettySize=auto;html=1;startArrow=classic;startFill=1;" edge="1" parent="YCOWaq2i7h73TdRueokA-7" source="YCOWaq2i7h73TdRueokA-13" target="YCOWaq2i7h73TdRueokA-28">
          <mxGeometry relative="1" as="geometry" />
        </mxCell>
        <mxCell id="YCOWaq2i7h73TdRueokA-13" value="&lt;b&gt;AMPLIFY REACT&lt;/b&gt;" style="sketch=0;points=[[0,0,0],[0.25,0,0],[0.5,0,0],[0.75,0,0],[1,0,0],[0,1,0],[0.25,1,0],[0.5,1,0],[0.75,1,0],[1,1,0],[0,0.25,0],[0,0.5,0],[0,0.75,0],[1,0.25,0],[1,0.5,0],[1,0.75,0]];outlineConnect=0;fontColor=#232F3E;fillColor=#DD344C;strokeColor=#ffffff;dashed=0;verticalLabelPosition=bottom;verticalAlign=top;align=center;html=1;fontSize=12;fontStyle=0;aspect=fixed;shape=mxgraph.aws4.resourceIcon;resIcon=mxgraph.aws4.amplify;" vertex="1" parent="YCOWaq2i7h73TdRueokA-7">
          <mxGeometry x="290" y="370" width="60" height="60" as="geometry" />
        </mxCell>
        <mxCell id="YCOWaq2i7h73TdRueokA-28" value="&lt;b&gt;API GATEWAY&lt;/b&gt;" style="sketch=0;outlineConnect=0;fontColor=#232F3E;gradientColor=none;fillColor=#E7157B;strokeColor=none;dashed=0;verticalLabelPosition=bottom;verticalAlign=top;align=center;html=1;fontSize=12;fontStyle=0;aspect=fixed;pointerEvents=1;shape=mxgraph.aws4.endpoint;" vertex="1" parent="YCOWaq2i7h73TdRueokA-7">
          <mxGeometry x="410" y="370" width="60" height="60" as="geometry" />
        </mxCell>
        <mxCell id="YCOWaq2i7h73TdRueokA-33" style="edgeStyle=orthogonalEdgeStyle;rounded=0;orthogonalLoop=1;jettySize=auto;html=1;" edge="1" parent="YCOWaq2i7h73TdRueokA-7" source="YCOWaq2i7h73TdRueokA-29" target="YCOWaq2i7h73TdRueokA-12">
          <mxGeometry relative="1" as="geometry" />
        </mxCell>
        <mxCell id="YCOWaq2i7h73TdRueokA-29" value="&lt;b&gt;Rule&lt;/b&gt;" style="sketch=0;outlineConnect=0;fontColor=#232F3E;gradientColor=none;fillColor=#7AA116;strokeColor=none;dashed=0;verticalLabelPosition=bottom;verticalAlign=top;align=center;html=1;fontSize=12;fontStyle=0;aspect=fixed;pointerEvents=1;shape=mxgraph.aws4.rule;" vertex="1" parent="YCOWaq2i7h73TdRueokA-7">
          <mxGeometry x="180" y="250" width="35.38" height="60" as="geometry" />
        </mxCell>
        <mxCell id="YCOWaq2i7h73TdRueokA-37" style="edgeStyle=orthogonalEdgeStyle;rounded=0;orthogonalLoop=1;jettySize=auto;html=1;endArrow=none;endFill=0;" edge="1" parent="YCOWaq2i7h73TdRueokA-7" source="YCOWaq2i7h73TdRueokA-14" target="YCOWaq2i7h73TdRueokA-15">
          <mxGeometry relative="1" as="geometry" />
        </mxCell>
        <mxCell id="YCOWaq2i7h73TdRueokA-14" value="&lt;b&gt;Rule&lt;/b&gt;" style="sketch=0;outlineConnect=0;fontColor=#232F3E;gradientColor=none;fillColor=#7AA116;strokeColor=none;dashed=0;verticalLabelPosition=bottom;verticalAlign=top;align=center;html=1;fontSize=12;fontStyle=0;aspect=fixed;pointerEvents=1;shape=mxgraph.aws4.rule;" vertex="1" parent="YCOWaq2i7h73TdRueokA-7">
          <mxGeometry x="180" y="90" width="35.38" height="60" as="geometry" />
        </mxCell>
        <mxCell id="YCOWaq2i7h73TdRueokA-34" value="&lt;b&gt;Telegram Notis&lt;/b&gt;" style="shape=image;html=1;verticalAlign=top;verticalLabelPosition=bottom;labelBackgroundColor=#ffffff;imageAspect=0;aspect=fixed;image=https://cdn1.iconfinder.com/data/icons/unicons-line-vol-6/24/telegram-128.png" vertex="1" parent="YCOWaq2i7h73TdRueokA-7">
          <mxGeometry x="410" y="90" width="60" height="60" as="geometry" />
        </mxCell>
        <mxCell id="YCOWaq2i7h73TdRueokA-38" value="" style="edgeStyle=orthogonalEdgeStyle;rounded=0;orthogonalLoop=1;jettySize=auto;html=1;" edge="1" parent="YCOWaq2i7h73TdRueokA-7" source="YCOWaq2i7h73TdRueokA-15" target="YCOWaq2i7h73TdRueokA-34">
          <mxGeometry relative="1" as="geometry" />
        </mxCell>
        <mxCell id="YCOWaq2i7h73TdRueokA-15" value="&lt;b&gt;Lambda Function&lt;/b&gt;" style="sketch=0;outlineConnect=0;fontColor=#232F3E;gradientColor=none;fillColor=#7AA116;strokeColor=none;dashed=0;verticalLabelPosition=bottom;verticalAlign=top;align=center;html=1;fontSize=12;fontStyle=0;aspect=fixed;pointerEvents=1;shape=mxgraph.aws4.lambda_function;" vertex="1" parent="YCOWaq2i7h73TdRueokA-7">
          <mxGeometry x="287" y="90" width="60" height="60" as="geometry" />
        </mxCell>
        <mxCell id="YCOWaq2i7h73TdRueokA-41" style="edgeStyle=orthogonalEdgeStyle;rounded=0;orthogonalLoop=1;jettySize=auto;html=1;" edge="1" parent="YCOWaq2i7h73TdRueokA-7" source="YCOWaq2i7h73TdRueokA-16" target="YCOWaq2i7h73TdRueokA-28">
          <mxGeometry relative="1" as="geometry" />
        </mxCell>
        <mxCell id="YCOWaq2i7h73TdRueokA-16" value="&lt;b&gt;Lambda Function&lt;/b&gt;" style="sketch=0;outlineConnect=0;fontColor=#232F3E;gradientColor=none;fillColor=#7AA116;strokeColor=none;dashed=0;verticalLabelPosition=bottom;verticalAlign=top;align=center;html=1;fontSize=12;fontStyle=0;aspect=fixed;pointerEvents=1;shape=mxgraph.aws4.lambda_function;" vertex="1" parent="YCOWaq2i7h73TdRueokA-7">
          <mxGeometry x="410" y="250" width="60" height="60" as="geometry" />
        </mxCell>
        <mxCell id="YCOWaq2i7h73TdRueokA-39" style="edgeStyle=orthogonalEdgeStyle;rounded=0;orthogonalLoop=1;jettySize=auto;html=1;entryX=1;entryY=0.5;entryDx=0;entryDy=0;entryPerimeter=0;" edge="1" parent="YCOWaq2i7h73TdRueokA-7" source="YCOWaq2i7h73TdRueokA-16" target="YCOWaq2i7h73TdRueokA-12">
          <mxGeometry relative="1" as="geometry" />
        </mxCell>
        <mxCell id="YCOWaq2i7h73TdRueokA-17" value="" style="shape=image;html=1;verticalAlign=top;verticalLabelPosition=bottom;labelBackgroundColor=#ffffff;imageAspect=0;aspect=fixed;image=https://cdn1.iconfinder.com/data/icons/bootstrap-vol-3/16/mailbox-128.png" vertex="1" parent="1">
          <mxGeometry x="20" y="112" width="48" height="48" as="geometry" />
        </mxCell>
        <mxCell id="YCOWaq2i7h73TdRueokA-19" value="" style="rounded=1;whiteSpace=wrap;html=1;fillColor=none;" vertex="1" parent="1">
          <mxGeometry x="20" y="119" width="240" height="160" as="geometry" />
        </mxCell>
        <mxCell id="YCOWaq2i7h73TdRueokA-27" style="edgeStyle=orthogonalEdgeStyle;rounded=0;orthogonalLoop=1;jettySize=auto;html=1;entryX=0;entryY=0.5;entryDx=0;entryDy=0;entryPerimeter=0;" edge="1" parent="1" source="YCOWaq2i7h73TdRueokA-5" target="YCOWaq2i7h73TdRueokA-1">
          <mxGeometry relative="1" as="geometry" />
        </mxCell>
      </root>
    </mxGraphModel>
  </diagram>
</mxfile>
